{
  "accessors": [
    {
      "bufferView": 1,
      "componentType": 5126,
      "count": 65532,
      "max": [
        16.88592529296875,
        23.36258316040039,
        5.147300720214844
      ],
      "min": [
        -7.802347183227539,
        -23.36258316040039,
        2.014542579650879
      ],
      "type": "VEC3"
    },
    {
      "bufferView": 1,
      "byteOffset": 786384,
      "componentType": 5126,
      "count": 65532,
      "max": [
        0.9999526739120483,
        0.999995768070221,
        0.9999747276306152
      ],
      "min": [
        -0.9999966621398926,
        -0.9999802112579346,
        -0.9999902248382568
      ],
      "type": "VEC3"
    },
    {
      "bufferView": 0,
      "componentType": 5125,
      "count": 356553,
      "type": "SCALAR"
    },
    {
      "bufferView": 1,
      "byteOffset": 1572768,
      "componentType": 5126,
      "count": 65532,
      "max": [
        16.621292114257813,
        16.77225112915039,
        4.126261234283447
      ],
      "min": [
        -16.483192443847656,
        -16.772247314453125,
        1.5123370885849
      ],
      "type": "VEC3"
    },
    {
      "bufferView": 1,
      "byteOffset": 2359152,
      "componentType": 5126,
      "count": 65532,
      "max": [
        0.9999710321426392,
        0.9999630451202393,
        0.9999943375587463
      ],
      "min": [
        -0.9999966621398926,
        -0.999963104724884,
        -0.9999901652336121
      ],
      "type": "VEC3"
    },
    {
      "bufferView": 0,
      "byteOffset": 1426212,
      "componentType": 5125,
      "count": 337026,
      "type": "SCALAR"
    },
    {
      "bufferView": 1,
      "byteOffset": 3145536,
      "componentType": 5126,
      "count": 43565,
      "max": [
        5.738763809204102,
        2.98616623878479,
        4.429015159606934
      ],
      "min": [
        -16.483192443847656,
        -2.98759126663208,
        2.9839038848876953
      ],
      "type": "VEC3"
    },
    {
      "bufferView": 1,
      "byteOffset": 3668316,
      "componentType": 5126,
      "count": 43565,
      "max": [
        0.9999709129333496,
        0.9999998807907104,
        0.9999972581863403
      ],
      "min": [
        -0.9999843239784241,
        -0.9999931454658508,
        -0.9999822974205017
      ],
      "type": "VEC3"
    },
    {
      "bufferView": 0,
      "byteOffset": 2774316,
      "componentType": 5125,
      "count": 206694,
      "type": "SCALAR"
    }
  ],
  "asset": {
    "extras": {
      "author": "GéoLab UniLaSalle (https://sketchfab.com/geolab.unilasalle)",
      "license": "CC-BY-NC-SA-4.0 (http://creativecommons.org/licenses/by-nc-sa/4.0/)",
      "source": "https://sketchfab.com/3d-models/pterosaure-ca7db9cb6c3e4e7cab83acdb20a4352f",
      "title": "Pterosaure"
    },
    "generator": "Sketchfab-12.78.0",
    "version": "2.0"
  },
  "bufferViews": [
    {
      "buffer": 0,
      "byteLength": 3601092,
      "name": "floatBufferViews",
      "target": 34963
    },
    {
      "buffer": 0,
      "byteLength": 4191096,
      "byteOffset": 3601092,
      "byteStride": 12,
      "name": "floatBufferViews",
      "target": 34962
    }
  ],
  "buffers": [
    {
      "byteLength": 7792188,
      "uri": "scene.bin"
    }
  ],
  "materials": [
    {
      "doubleSided": true,
      "name": "Scene_-_Root",
      "pbrMetallicRoughness": {
        "baseColorFactor": [
          0.6477363959736341,
          0.4920451889109412,
          0.2647827368941227,
          1.0
        ],
        "metallicFactor": 0.0,
        "roughnessFactor": 0.6
      }
    }
  ],
  "meshes": [
    {
      "name": "Object_0",
      "primitives": [
        {
          "attributes": {
            "NORMAL": 1,
            "POSITION": 0
          },
          "indices": 2,
          "material": 0,
          "mode": 4
        }
      ]
    },
    {
      "name": "Object_1",
      "primitives": [
        {
          "attributes": {
            "NORMAL": 4,
            "POSITION": 3
          },
          "indices": 5,
          "material": 0,
          "mode": 4
        }
      ]
    },
    {
      "name": "Object_2",
      "primitives": [
        {
          "attributes": {
            "NORMAL": 7,
            "POSITION": 6
          },
          "indices": 8,
          "material": 0,
          "mode": 4
        }
      ]
    }
  ],
  "nodes": [
    {
      "children": [
        1
      ],
      "matrix": [
        1.0,
        0.0,
        0.0,
        0.0,
        0.0,
        2.220446049250313e-16,
        -1.0,
        0.0,
        0.0,
        1.0,
        2.220446049250313e-16,
        0.0,
        0.0,
        0.0,
        0.0,
        1.0
      ],
      "name": "Sketchfab_model"
    },
    {
      "children": [
        2,
        3,
        4
      ],
      "name": "Pterosaure Light .stl.cleaner.materialmerger.gles"
    },
    {
      "mesh": 0,
      "name": "Object_2"
    },
    {
      "mesh": 1,
      "name": "Object_3"
    },
    {
      "mesh": 2,
      "name": "Object_4"
    }
  ],
  "scene": 0,
  "scenes": [
    {
      "name": "Sketchfab_Scene",
      "nodes": [
        0
      ]
    }
  ]
}
